<svg xmlns="http://www.w3.org/2000/svg" xmlns:xlink="http://www.w3.org/1999/xlink" viewBox="0,0,256,256" width="20px" height="20px" fill-rule="nonzero"><g fill="#ffffff" fill-rule="nonzero" stroke="none" stroke-width="1" stroke-linecap="butt" stroke-linejoin="miter" stroke-miterlimit="10" stroke-dasharray="" stroke-dashoffset="0" font-family="none" font-weight="none" font-size="none" text-anchor="none" style="mix-blend-mode: normal"><g transform="scale(8.53333,8.53333)"><path d="M26.884,16.579c0.069,-0.518 0.116,-1.043 0.116,-1.579c0,-6.627 -5.373,-12 -12,-12c-0.536,0 -1.061,0.047 -1.579,0.116c-1.142,-0.703 -2.482,-1.116 -3.921,-1.116c-4.142,0 -7.5,3.358 -7.5,7.5c0,1.439 0.413,2.779 1.116,3.921c-0.069,0.518 -0.116,1.043 -0.116,1.579c0,6.627 5.373,12 12,12c0.536,0 1.061,-0.047 1.579,-0.116c1.142,0.703 2.482,1.116 3.921,1.116c4.142,0 7.5,-3.358 7.5,-7.5c0,-1.439 -0.413,-2.779 -1.116,-3.921zM15.149,22c-3.896,0 -6.133,-2.042 -6.133,-4.046c0,-1.022 1.07,-1.349 1.498,-1.349c0.989,0 1.318,0.807 1.498,1.177c1.005,2.066 1.971,1.794 2.923,1.884c0.841,0.079 2.815,-0.292 2.815,-1.734c0,-0.138 0.217,-1.076 -1.487,-1.541c-1.089,-0.298 -3.009,-0.663 -4.589,-1.271c-1.486,-0.572 -2.358,-1.75 -2.358,-3.268c0,-0.759 0.389,-3.852 5.651,-3.852c3.512,0 5.384,1.799 5.384,3.382c0,0.364 -0.139,0.685 -0.418,0.974c-0.279,0.289 -1.065,0.712 -1.926,0.161c-0.217,-0.139 -0.396,-0.428 -0.61,-0.803c-0.258,-0.471 -0.68,-1.381 -2.623,-1.381c-1.885,0 -2.408,0.899 -2.408,1.274c0,1.26 2.405,1.525 3.051,1.692c2.358,0.608 5.566,1.167 5.566,4.346c0,3.65 -3.798,4.355 -5.834,4.355z"></path></g></g></svg>